<svg width="1440" height="701" viewBox="0 0 1440 701" fill="none" xmlns="http://www.w3.org/2000/svg">
<path d="M0 315.19L80 289.522C160 263.224 320 212.833 480 238.029C640 263.224 800 367.157 960 379.44C1120 392.352 1280 315.19 1440 289.522C1600 263.224 1760 289.995 1920 302.278C2080 315.19 2240 315.19 2400 353.771C2560 392.352 2720 469.514 2880 418.02C3040 367.157 3200 186.062 3360 96.6175C3520 6.54281 3680 6.54282 3840 109.373C4000 212.833 4160 417.548 4320 469.514C4480 521.48 4640 417.548 4800 405.265C4960 392.352 5120 469.514 5280 405.265C5440 340.386 5600 135.671 5760 96.6175C5920 58.509 6080 186.062 6240 276.609C6400 367.157 6560 417.548 6720 456.601C6880 494.71 7040 521.48 7200 508.095C7360 494.71 7520 444.319 7680 392.352C7840 340.386 8000 289.995 8160 250.941C8320 212.833 8480 186.062 8640 212.36C8800 238.029 8960 315.19 9120 302.278C9280 289.995 9440 186.062 9600 109.373C9760 31.7386 9920 -18.6529 10080 6.54282C10240 31.7385 10400 135.671 10560 135.198C10720 135.671 10880 31.7385 11040 96.6175C11200 160.867 11360 392.352 11440 508.095L11520 623.838V701H11440C11360 701 11200 701 11040 701C10880 701 10720 701 10560 701C10400 701 10240 701 10080 701C9920 701 9760 701 9600 701C9440 701 9280 701 9120 701C8960 701 8800 701 8640 701C8480 701 8320 701 8160 701C8000 701 7840 701 7680 701C7520 701 7360 701 7200 701C7040 701 6880 701 6720 701C6560 701 6400 701 6240 701C6080 701 5920 701 5760 701C5600 701 5440 701 5280 701C5120 701 4960 701 4800 701C4640 701 4480 701 4320 701C4160 701 4000 701 3840 701C3680 701 3520 701 3360 701C3200 701 3040 701 2880 701C2720 701 2560 701 2400 701C2240 701 2080 701 1920 701C1760 701 1600 701 1440 701C1280 701 1120 701 960 701C800 701 640 701 480 701C320 701 160 701 80 701H0V315.19Z" fill="#8DA77D"/>
</svg>
